# xmcd
# 
# Track frame offsets:
#     150
#     18268
#     31044
#     49301
#     67544
#     82218
#     99588
#     113524
#     125247
#     139713
#     156475
#     167711
#     175480
# 
# Disc length: 2592
# 
# Revision: 4
# Processed by: cddbd v1.5.2PL0 Copyright (c) Steve Scherf et al.
# Submitted via: fre:ac v1.0.17
# 
DISCID=aa0a1e0d
DTITLE=Nina Hagen - Personal Jesus
DYEAR=2010
DGENRE=Gospel
TTITLE0=God's radar
TTITLE1=I'll live again
TTITLE2=Personal Jesus
TTITLE3=Nobody's fault
TTITLE4=Down at the cross
TTITLE5=Just a little talk with Jesus
TTITLE6=Mean old world
TTITLE7=Help me
TTITLE8=Take Jesus with you
TTITLE9=On the battlefield
TTITLE10=Run on
TTITLE11=All you fascists bound to lose
TTITLE12=Sometimes I ring up heaven
EXTD=
EXTT0=
EXTT1=
EXTT2=
EXTT3=
EXTT4=
EXTT5=
EXTT6=
EXTT7=
EXTT8=
EXTT9=
EXTT10=
EXTT11=
EXTT12=
PLAYORDER=
